{"accessors" : [{"bufferView" : 0, "byteOffset" : 0, "componentType" : 5123, "count" : 3708, "type" : "SCALAR", "max" : [1000], "min" : [0]}, {"bufferView" : 1, "byteOffset" : 0, "componentType" : 5126, "count" : 1001, "type" : "VEC3", "max" : [9.49437141418457, 1.1155530214309692, 9.313458442687988], "min" : [1.6566716432571411, -1.1155530214309692, 0.2856816351413727], "name" : "POSITION"}, {"bufferView" : 1, "byteOffset" : 12, "componentType" : 5126, "count" : 1001, "type" : "VEC2", "max" : [0.6565884351730347, 1], "min" : [0, 0.00146484375], "name" : "TEXCOORD_0"}, {"bufferView" : 1, "byteOffset" : 20, "componentType" : 5126, "count" : 1001, "type" : "VEC3", "max" : [0.9994118809700012, 1.0000044107437134, 0.9803583025932312], "min" : [-0.9994118809700012, -1.0000044107437134, -0.9994118809700012], "name" : "NORMAL"}, {"bufferView" : 0, "byteOffset" : 7416, "componentType" : 5123, "count" : 3708, "type" : "SCALAR", "max" : [1004], "min" : [0]}, {"bufferView" : 2, "byteOffset" : 0, "componentType" : 5126, "count" : 1005, "type" : "VEC3", "max" : [-1.6566716432571411, 1.1155530214309692, 9.313458442687988], "min" : [-9.49437141418457, -1.1155530214309692, 0.2856816351413727], "name" : "POSITION"}, {"bufferView" : 2, "byteOffset" : 12, "componentType" : 5126, "count" : 1005, "type" : "VEC2", "max" : [0.6565884351730347, 1], "min" : [0, 0.00146484375], "name" : "TEXCOORD_0"}, {"bufferView" : 2, "byteOffset" : 20, "componentType" : 5126, "count" : 1005, "type" : "VEC3", "max" : [0.9994118809700012, 1.0000044107437134, 0.9803583025932312], "min" : [-1.0000044107437134, -1.0000044107437134, -0.9994118809700012], "name" : "NORMAL"}, {"bufferView" : 0, "byteOffset" : 14832, "componentType" : 5123, "count" : 4530, "type" : "SCALAR", "max" : [1775], "min" : [0]}, {"bufferView" : 3, "byteOffset" : 0, "componentType" : 5126, "count" : 1776, "type" : "VEC3", "max" : [-1.201451063156128, -2.847010850906372, 13.436528205871582], "min" : [-3.726130723953247, -5.311127662658691, 9.059432029724121], "name" : "POSITION"}, {"bufferView" : 3, "byteOffset" : 12, "componentType" : 5126, "count" : 1776, "type" : "VEC2", "max" : [0.9732846021652222, 1], "min" : [0.0001952353777596727, 0.00146484375], "name" : "TEXCOORD_0"}, {"bufferView" : 3, "byteOffset" : 20, "componentType" : 5126, "count" : 1776, "type" : "VEC3", "max" : [0.7315407395362854, 0.7417210936546326, 1.0000044107437134], "min" : [-0.9946604371070862, -0.9976305961608887, -0.997954249382019], "name" : "NORMAL"}, {"bufferView" : 0, "byteOffset" : 23892, "componentType" : 5123, "count" : 4536, "type" : "SCALAR", "max" : [1768], "min" : [0]}, {"bufferView" : 4, "byteOffset" : 0, "componentType" : 5126, "count" : 1769, "type" : "VEC3", "max" : [3.726130723953247, 5.311127662658691, 13.436528205871582], "min" : [1.201451063156128, 2.847010850906372, 9.059432029724121], "name" : "POSITION"}, {"bufferView" : 4, "byteOffset" : 12, "componentType" : 5126, "count" : 1769, "type" : "VEC2", "max" : [0.9732846021652222, 1], "min" : [0.0001952353777596727, 0.00146484375], "name" : "TEXCOORD_0"}, {"bufferView" : 4, "byteOffset" : 20, "componentType" : 5126, "count" : 1769, "type" : "VEC3", "max" : [0.9946604371070862, 0.9976305961608887, 1.0000044107437134], "min" : [-0.7315407395362854, -0.7417210936546326, -0.997954249382019], "name" : "NORMAL"}, {"bufferView" : 0, "byteOffset" : 32964, "componentType" : 5123, "count" : 4674, "type" : "SCALAR", "max" : [1776], "min" : [0]}, {"bufferView" : 5, "byteOffset" : 0, "componentType" : 5126, "count" : 1777, "type" : "VEC3", "max" : [3.726130723953247, -2.847010850906372, 13.436528205871582], "min" : [1.201451063156128, -5.311127662658691, 9.059432029724121], "name" : "POSITION"}, {"bufferView" : 5, "byteOffset" : 12, "componentType" : 5126, "count" : 1777, "type" : "VEC2", "max" : [0.9728607535362244, 1], "min" : [0.00019514984160196036, 0.00146484375], "name" : "TEXCOORD_0"}, {"bufferView" : 5, "byteOffset" : 20, "componentType" : 5126, "count" : 1777, "type" : "VEC3", "max" : [0.9946604371070862, 0.7408410310745239, 1.0000044107437134], "min" : [-0.7315407395362854, -0.9976305961608887, -0.997954249382019], "name" : "NORMAL"}, {"bufferView" : 0, "byteOffset" : 42312, "componentType" : 5123, "count" : 4560, "type" : "SCALAR", "max" : [1795], "min" : [0]}, {"bufferView" : 6, "byteOffset" : 0, "componentType" : 5126, "count" : 1796, "type" : "VEC3", "max" : [-1.201451063156128, 5.311127662658691, 13.436528205871582], "min" : [-3.726130723953247, 2.847010850906372, 9.059432029724121], "name" : "POSITION"}, {"bufferView" : 6, "byteOffset" : 12, "componentType" : 5126, "count" : 1796, "type" : "VEC2", "max" : [0.9728607535362244, 1], "min" : [0.00019514984160196036, 0.00146484375], "name" : "TEXCOORD_0"}, {"bufferView" : 6, "byteOffset" : 20, "componentType" : 5126, "count" : 1796, "type" : "VEC3", "max" : [0.7315407395362854, 0.9976305961608887, 1.0000044107437134], "min" : [-0.9946604371070862, -0.7408410310745239, -0.997954249382019], "name" : "NORMAL"}, {"bufferView" : 0, "byteOffset" : 51432, "componentType" : 5123, "count" : 11346, "type" : "SCALAR", "max" : [5517], "min" : [0]}, {"bufferView" : 7, "byteOffset" : 0, "componentType" : 5126, "count" : 5518, "type" : "VEC3", "max" : [2.574848175048828, 4.270310878753662, 9.495030403137207], "min" : [-2.5748631954193115, -4.27035665512085, 8.014446258544922], "name" : "POSITION"}, {"bufferView" : 7, "byteOffset" : 12, "componentType" : 5126, "count" : 5518, "type" : "VEC2", "max" : [0.9380839467048645, 1], "min" : [0, 0.00146484375], "name" : "TEXCOORD_0"}, {"bufferView" : 7, "byteOffset" : 20, "componentType" : 5126, "count" : 5518, "type" : "VEC3", "max" : [1.0000042915344238, 1.0000044107437134, 1.0000044107437134], "min" : [-1.0000044107437134, -1.0000041723251343, -1.0000044107437134], "name" : "NORMAL"}, {"bufferView" : 0, "byteOffset" : 74124, "componentType" : 5123, "count" : 19800, "type" : "SCALAR", "max" : [4497], "min" : [0]}, {"bufferView" : 8, "byteOffset" : 0, "componentType" : 5126, "count" : 4498, "type" : "VEC3", "max" : [10.444902420043945, 1.1184422969818115, 12.332647323608398], "min" : [-0.19061587750911713, -1.1184422969818115, -10.11378288269043], "name" : "POSITION"}, {"bufferView" : 0, "byteOffset" : 113724, "componentType" : 5123, "count" : 19878, "type" : "SCALAR", "max" : [4510], "min" : [0]}, {"bufferView" : 9, "byteOffset" : 0, "componentType" : 5126, "count" : 4511, "type" : "VEC3", "max" : [0.19061587750911713, 1.1184422969818115, 12.332647323608398], "min" : [-10.444902420043945, -1.1184422969818115, -10.11378288269043], "name" : "POSITION"}, {"bufferView" : 0, "byteOffset" : 153480, "componentType" : 5123, "count" : 1752, "type" : "SCALAR", "max" : [498], "min" : [0]}, {"bufferView" : 10, "byteOffset" : 0, "componentType" : 5126, "count" : 499, "type" : "VEC3", "max" : [0.3631892204284668, 1.118438959121704, -8.294390678405762], "min" : [-0.3725970387458801, -1.118438959121704, -10.111954689025879], "name" : "POSITION"}, {"bufferView" : 0, "byteOffset" : 156984, "componentType" : 5123, "count" : 1752, "type" : "SCALAR", "max" : [498], "min" : [0]}, {"bufferView" : 11, "byteOffset" : 0, "componentType" : 5126, "count" : 499, "type" : "VEC3", "max" : [0.3725970387458801, 3.450050115585327, 11.032951354980469], "min" : [-2.200000047683716, -1.118438959121704, -10.111954689025879], "name" : "POSITION"}, {"bufferView" : 0, "byteOffset" : 160488, "componentType" : 5123, "count" : 11724, "type" : "SCALAR", "max" : [3020], "min" : [0]}, {"bufferView" : 12, "byteOffset" : 0, "componentType" : 5126, "count" : 3021, "type" : "VEC3", "max" : [3.539069890975952, 5.1892876625061035, 12.332647323608398], "min" : [-3.518862724304199, -5.169002532958984, 10.056938171386719], "name" : "POSITION"}, {"bufferView" : 0, "byteOffset" : 183936, "componentType" : 5123, "count" : 408, "type" : "SCALAR", "max" : [281], "min" : [0]}, {"bufferView" : 13, "byteOffset" : 0, "componentType" : 5126, "count" : 282, "type" : "VEC3", "max" : [3.3499999046325684, 5, 13.839200019836426], "min" : [-3.3499999046325684, -5, 9.551199913024902], "name" : "POSITION"}, {"bufferView" : 13, "byteOffset" : 12, "componentType" : 5126, "count" : 282, "type" : "VEC3", "max" : [1.0000044107437134, 1.0000044107437134, 1.0000044107437134], "min" : [-1.0000044107437134, -1.0000044107437134, -0.9192125201225281], "name" : "NORMAL"}, {"bufferView" : 0, "byteOffset" : 184752, "componentType" : 5123, "count" : 666, "type" : "SCALAR", "max" : [238], "min" : [0]}, {"bufferView" : 14, "byteOffset" : 0, "componentType" : 5126, "count" : 239, "type" : "VEC3", "max" : [4.694590091705322, 0.28076231479644775, -6.976424217224121], "min" : [3.8051705360412598, -0.28174737095832825, -7.840634346008301], "name" : "POSITION"}, {"bufferView" : 0, "byteOffset" : 186084, "componentType" : 5123, "count" : 702, "type" : "SCALAR", "max" : [248], "min" : [0]}, {"bufferView" : 15, "byteOffset" : 0, "componentType" : 5126, "count" : 249, "type" : "VEC3", "max" : [4.409359931945801, -0.03899889439344406, -7.236608028411865], "min" : [3.608071804046631, -0.7049625515937805, -7.840634346008301], "name" : "POSITION"}, {"bufferView" : 15, "byteOffset" : 12, "componentType" : 5126, "count" : 249, "type" : "VEC2", "max" : [0.99853515625, 1], "min" : [0, 0.18759340047836304], "name" : "TEXCOORD_0"}, {"bufferView" : 15, "byteOffset" : 20, "componentType" : 5126, "count" : 249, "type" : "VEC3", "max" : [0.8227638006210327, 0.937861442565918, 0.9001416563987732], "min" : [-0.821624219417572, -0.9377911686897278, -0.883201003074646], "name" : "NORMAL"}, {"bufferView" : 0, "byteOffset" : 187488, "componentType" : 5123, "count" : 708, "type" : "SCALAR", "max" : [250], "min" : [0]}, {"bufferView" : 16, "byteOffset" : 0, "componentType" : 5126, "count" : 251, "type" : "VEC3", "max" : [4.405634880065918, 0.7038109302520752, -7.2376580238342285], "min" : [3.6078460216522217, 0.0332423597574234, -7.840729713439941], "name" : "POSITION"}, {"bufferView" : 16, "byteOffset" : 12, "componentType" : 5126, "count" : 251, "type" : "VEC2", "max" : [0.99853515625, 1], "min" : [0, 0.1915905475616455], "name" : "TEXCOORD_0"}, {"bufferView" : 16, "byteOffset" : 20, "componentType" : 5126, "count" : 251, "type" : "VEC3", "max" : [0.82480788230896, 0.9354884028434753, 0.900189220905304], "min" : [-0.8236290812492371, -0.9355749487876892, -0.883201003074646], "name" : "NORMAL"}, {"bufferView" : 0, "byteOffset" : 188904, "componentType" : 5123, "count" : 720, "type" : "SCALAR", "max" : [256], "min" : [0]}, {"bufferView" : 17, "byteOffset" : 0, "componentType" : 5126, "count" : 257, "type" : "VEC3", "max" : [5.074830532073975, 0.7040559649467468, -6.732982158660889], "min" : [4.324076175689697, -0.7047179341316223, -7.487154006958008], "name" : "POSITION"}, {"bufferView" : 0, "byteOffset" : 190344, "componentType" : 5123, "count" : 708, "type" : "SCALAR", "max" : [252], "min" : [0]}, {"bufferView" : 18, "byteOffset" : 0, "componentType" : 5126, "count" : 253, "type" : "VEC3", "max" : [8.594922065734863, 0.5577765107154846, 0.2960072457790375], "min" : [4.327816009521484, -0.7047179341316223, -7.485170841217041], "name" : "POSITION"}], "asset" : {"generator" : "Aspose.3D 25.2.0", "version" : "2.0"}, "buffers" : [{"uri" : "data:application/octet-stream;base64,", "byteLength" : 848472}], "bufferViews" : [{"buffer" : 0, "byteOffset" : 0, "byteLength" : 191760, "target" : 34963}, {"buffer" : 0, "byteOffset" : 191764, "byteLength" : 32032, "byteStride" : 32, "target" : 34962}, {"buffer" : 0, "byteOffset" : 223800, "byteLength" : 32160, "byteStride" : 32, "target" : 34962}, {"buffer" : 0, "byteOffset" : 255964, "byteLength" : 56832, "byteStride" : 32, "target" : 34962}, {"buffer" : 0, "byteOffset" : 312800, "byteLength" : 56608, "byteStride" : 32, "target" : 34962}, {"buffer" : 0, "byteOffset" : 369412, "byteLength" : 56864, "byteStride" : 32, "target" : 34962}, {"buffer" : 0, "byteOffset" : 426280, "byteLength" : 57472, "byteStride" : 32, "target" : 34962}, {"buffer" : 0, "byteOffset" : 483756, "byteLength" : 176576, "byteStride" : 32, "target" : 34962}, {"buffer" : 0, "byteOffset" : 660336, "byteLength" : 53976, "byteStride" : 12, "target" : 34962}, {"buffer" : 0, "byteOffset" : 714316, "byteLength" : 54132, "byteStride" : 12, "target" : 34962}, {"buffer" : 0, "byteOffset" : 768452, "byteLength" : 5988, "byteStride" : 12, "target" : 34962}, {"buffer" : 0, "byteOffset" : 774444, "byteLength" : 5988, "byteStride" : 12, "target" : 34962}, {"buffer" : 0, "byteOffset" : 780436, "byteLength" : 36252, "byteStride" : 12, "target" : 34962}, {"buffer" : 0, "byteOffset" : 816692, "byteLength" : 6768, "byteStride" : 24, "target" : 34962}, {"buffer" : 0, "byteOffset" : 823464, "byteLength" : 2868, "byteStride" : 12, "target" : 34962}, {"buffer" : 0, "byteOffset" : 826336, "byteLength" : 7968, "byteStride" : 32, "target" : 34962}, {"buffer" : 0, "byteOffset" : 834308, "byteLength" : 8032, "byteStride" : 32, "target" : 34962}, {"buffer" : 0, "byteOffset" : 842344, "byteLength" : 3084, "byteStride" : 12, "target" : 34962}, {"buffer" : 0, "byteOffset" : 845432, "byteLength" : 3036, "byteStride" : 12, "target" : 34962}], "meshes" : [{"primitives" : [{"attributes" : {"POSITION" : 1, "TEXCOORD_0" : 2, "NORMAL" : 3}, "indices" : 0, "mode" : 4}], "name" : ""}, {"primitives" : [{"attributes" : {"POSITION" : 5, "TEXCOORD_0" : 6, "NORMAL" : 7}, "indices" : 4, "mode" : 4}], "name" : ""}, {"primitives" : [{"attributes" : {"POSITION" : 9, "TEXCOORD_0" : 10, "NORMAL" : 11}, "indices" : 8, "mode" : 4}], "name" : ""}, {"primitives" : [{"attributes" : {"POSITION" : 13, "TEXCOORD_0" : 14, "NORMAL" : 15}, "indices" : 12, "mode" : 4}], "name" : ""}, {"primitives" : [{"attributes" : {"POSITION" : 17, "TEXCOORD_0" : 18, "NORMAL" : 19}, "indices" : 16, "mode" : 4}], "name" : ""}, {"primitives" : [{"attributes" : {"POSITION" : 21, "TEXCOORD_0" : 22, "NORMAL" : 23}, "indices" : 20, "mode" : 4}], "name" : ""}, {"primitives" : [{"attributes" : {"POSITION" : 25, "TEXCOORD_0" : 26, "NORMAL" : 27}, "indices" : 24, "mode" : 4}], "name" : ""}, {"primitives" : [{"attributes" : {"POSITION" : 29}, "indices" : 28, "mode" : 4}], "name" : ""}, {"primitives" : [{"attributes" : {"POSITION" : 31}, "indices" : 30, "mode" : 4}], "name" : ""}, {"primitives" : [{"attributes" : {"POSITION" : 33}, "indices" : 32, "mode" : 4}], "name" : ""}, {"primitives" : [{"attributes" : {"POSITION" : 35}, "indices" : 34, "mode" : 4}], "name" : ""}, {"primitives" : [{"attributes" : {"POSITION" : 37}, "indices" : 36, "mode" : 4}], "name" : ""}, {"primitives" : [{"attributes" : {"POSITION" : 39, "NORMAL" : 40}, "indices" : 38, "mode" : 4}], "name" : ""}, {"primitives" : [{"attributes" : {"POSITION" : 42}, "indices" : 41, "mode" : 4}], "name" : ""}, {"primitives" : [{"attributes" : {"POSITION" : 44, "TEXCOORD_0" : 45, "NORMAL" : 46}, "indices" : 43, "mode" : 4}], "name" : ""}, {"primitives" : [{"attributes" : {"POSITION" : 48, "TEXCOORD_0" : 49, "NORMAL" : 50}, "indices" : 47, "mode" : 4}], "name" : ""}, {"primitives" : [{"attributes" : {"POSITION" : 52}, "indices" : 51, "mode" : 4}], "name" : ""}, {"primitives" : [{"attributes" : {"POSITION" : 54}, "indices" : 53, "mode" : 4}], "name" : ""}], "nodes" : [{"mesh" : 0, "name" : "object_1"}, {"mesh" : 1, "name" : "object_2"}, {"mesh" : 2, "name" : "object_3"}, {"mesh" : 3, "name" : "object_4"}, {"mesh" : 4, "name" : "object_5"}, {"mesh" : 5, "name" : "object_6"}, {"mesh" : 6, "name" : "object_7"}, {"mesh" : 7, "name" : "object_8"}, {"mesh" : 8, "name" : "object_9"}, {"mesh" : 9, "name" : "object_10"}, {"mesh" : 10, "name" : "object_11"}, {"mesh" : 11, "name" : "object_12"}, {"mesh" : 12, "name" : "Emerald"}, {"mesh" : 13, "name" : "object_13"}, {"mesh" : 14, "name" : "object_14"}, {"mesh" : 15, "name" : "object_15"}, {"mesh" : 16, "name" : "object_16"}, {"mesh" : 17, "name" : "object_17"}], "scene" : 0, "scenes" : [{"nodes" : [0, 1, 2, 3, 4, 5, 6, 7, 8, 9, 10, 11, 12, 13, 14, 15, 16, 17]}]}